# xmcd
#
# Track frame offsets:
#	150
#	15663
#	29231
#	50516
#	65040
#	79693
#	98606
#	115365
#	127908
#	140518
#	159746
#	176176
#	195000
#
# Disc length: 2811 seconds
#
# Revision: 1
# Processed by: cddbd v1.5.2PL0 Copyright (c) Steve Scherf et al.
# Submitted via: audiograbber 1.83.01
#
DISCID=b00af90d
DTITLE=Little Big Town - Pain Killer
DYEAR=2014
DGENRE=Country
TTITLE0=Quit Breaking Up With Me
TTITLE1=Day Drinking
TTITLE2=Tumble and Fall
TTITLE3=Pain Killer
TTITLE4=Girl Crush
TTITLE5=Faster Gun
TTITLE6=Good People
TTITLE7=Stay All Night
TTITLE8=Save Your Sin
TTITLE9=Live Forever
TTITLE10=Things You Don't Think About
TTITLE11=Turn The Lights On
TTITLE12=Silver and Gold
EXTD=
EXTT0=
EXTT1=
EXTT2=
EXTT3=
EXTT4=
EXTT5=
EXTT6=
EXTT7=
EXTT8=
EXTT9=
EXTT10=
EXTT11=
EXTT12=
PLAYORDER=
